# xmcd CD database file
#
# Track frame offsets:
#	150
#	16682
#	33795
#	52367
#	55727
#	77452
#	100242
#	118947
#	126742
#	145242
#	161710
#	180312
#	195745
#
# Disc length: 2671 seconds
#
# Revision: 7
# Processed by: cddbd v1.5.2PL0 Copyright (c) Steve Scherf et al.
# Submitted via: CDex 1.51
#
DISCID=b00a6d0d
DTITLE=F.I.R飛兒樂團 - 無限
DYEAR=2005
DGENRE=Funk
TTITLE0=無限
TTITLE1=千年之戀
TTITLE2=LOVE*3
TTITLE3=盛宴 ...
TTITLE4=應許之地
TTITLE5=把愛放開
TTITLE6=Neverland
TTITLE7=The Legend 傳說…
TTITLE8=刺鳥
TTITLE9=愛的力量
TTITLE10=死心的理由
TTITLE11=I can't go on
TTITLE12=What's next?
EXTD=YEAR: 2005
EXTT0=
EXTT1=
EXTT2=
EXTT3=
EXTT4=
EXTT5=
EXTT6=
EXTT7=
EXTT8=
EXTT9=
EXTT10=
EXTT11=
EXTT12=
PLAYORDER=
